<svg width="1600" height="520" viewBox="0 0 1600 520" fill="none" xmlns="http://www.w3.org/2000/svg">
  <defs>
    <linearGradient id="bgFire" x1="0" y1="0" x2="1600" y2="520" gradientUnits="userSpaceOnUse">
      <stop stop-color="#090403"/>
      <stop offset="0.5" stop-color="#1B0C06"/>
      <stop offset="1" stop-color="#080302"/>
    </linearGradient>

    <linearGradient id="accentFire" x1="100" y1="80" x2="1400" y2="440" gradientUnits="userSpaceOnUse">
      <stop stop-color="#FF7A18"/>
      <stop offset="0.5" stop-color="#FF4E00"/>
      <stop offset="1" stop-color="#C93A00"/>
    </linearGradient>

    <linearGradient id="pillFire" x1="0" y1="0" x2="260" y2="64" gradientUnits="userSpaceOnUse">
      <stop stop-color="#FFD29A"/>
      <stop offset="1" stop-color="#FF7A18"/>
    </linearGradient>

    <filter id="blurGlowFire" x="-100" y="-100" width="1800" height="800">
      <feGaussianBlur stdDeviation="55"/>
    </filter>
  </defs>

  <rect width="1600" height="520" rx="40" fill="url(#bgFire)"/>

  <g filter="url(#blurGlowFire)" opacity="0.9">
    <circle cx="1250" cy="120" r="180" fill="#FF7A18" fill-opacity="0.25"/>
    <circle cx="300" cy="460" r="200" fill="#FF4E00" fill-opacity="0.16"/>
    <circle cx="900" cy="310" r="260" fill="#FF7A18" fill-opacity="0.15"/>
  </g>

  <path d="M0 100C180 60 340 60 500 100C660 140 830 140 1000 100C1180 60 1380 70 1600 140V520H0V100Z"
        fill="url(#accentFire)" fill-opacity="0.18"/>

  <path d="M0 300C200 260 350 260 520 300C700 340 900 350 1120 300C1300 260 1450 260 1600 300V520H0V300Z"
        fill="#FF4E00" fill-opacity="0.12"/>

  <circle cx="1470" cy="90" r="200" fill="#FFFFFF10"/>
  <circle cx="1470" cy="90" r="120" fill="#FFFFFF08"/>

  <text x="90" y="100" fill="#FFD29A" font-size="34" font-family="Arial, Helvetica, sans-serif" font-weight="700" letter-spacing="8">
    ПРОЖАРИМ
  </text>

  <rect x="90" y="130" width="260" height="64" rx="32" fill="#120703" stroke="#FF7A18" stroke-opacity="0.45" stroke-width="2"/>
  <text x="220" y="172" text-anchor="middle" fill="url(#pillFire)" font-size="28" font-family="Arial, Helvetica, sans-serif" font-weight="900" letter-spacing="2">
    РЕЖИМ
  </text>

  <text x="90" y="275" fill="white" font-size="86" font-family="Arial, Helvetica, sans-serif" font-weight="900">
    ДОСТАВКА 24/7
  </text>

  <text x="90" y="350" fill="#F8F3EC" font-size="44" font-family="Arial, Helvetica, sans-serif" font-weight="700">
    Днём и ночью - вкусно и быстро
  </text>

  <text x="90" y="404" fill="#F2D6B8" font-size="34" font-family="Arial, Helvetica, sans-serif">
    Следите за тарифами и акциями на сайте.
  </text>

  <text x="90" y="455" fill="#FFFFFF88" font-size="25" font-family="Arial, Helvetica, sans-serif">
    
  </text>
</svg>
